<mxfile host="Electron" agent="Mozilla/5.0 (Windows NT 10.0; Win64; x64) AppleWebKit/537.36 (KHTML, like Gecko) draw.io/26.2.2 Chrome/134.0.6998.178 Electron/35.1.2 Safari/537.36" version="26.2.2">
  <diagram name="Страница — 1" id="UCesf0R_lC0VAAy8Ih6O">
    <mxGraphModel dx="1173" dy="701" grid="1" gridSize="10" guides="1" tooltips="1" connect="1" arrows="1" fold="1" page="1" pageScale="1" pageWidth="827" pageHeight="1169" math="0" shadow="0">
      <root>
        <mxCell id="0" />
        <mxCell id="1" parent="0" />
        <mxCell id="wNHU4gbdaXFMzNWrOB3Z-1" value="" style="rounded=0;whiteSpace=wrap;html=1;" parent="1" vertex="1">
          <mxGeometry x="-40" y="40" width="360" height="720" as="geometry" />
        </mxCell>
        <mxCell id="wNHU4gbdaXFMzNWrOB3Z-2" value="Пользователь" style="shape=umlActor;verticalLabelPosition=bottom;verticalAlign=top;html=1;outlineConnect=0;fontSize=10;" parent="1" vertex="1">
          <mxGeometry x="-150" y="400" width="30" height="60" as="geometry" />
        </mxCell>
        <mxCell id="wNHU4gbdaXFMzNWrOB3Z-3" value="Забронировать номер в отеле" style="ellipse;whiteSpace=wrap;html=1;fontSize=10;" parent="1" vertex="1">
          <mxGeometry x="170" y="220" width="130" height="100" as="geometry" />
        </mxCell>
        <mxCell id="wNHU4gbdaXFMzNWrOB3Z-8" value="Посмотреть данные профиля" style="ellipse;whiteSpace=wrap;html=1;fontSize=10;" parent="1" vertex="1">
          <mxGeometry x="-20" y="620" width="130" height="100" as="geometry" />
        </mxCell>
        <mxCell id="wNHU4gbdaXFMzNWrOB3Z-12" value="" style="endArrow=classic;dashed=1;html=1;rounded=0;endFill=1;startFill=0;startArrow=none;fontSize=10;" parent="1" source="wNHU4gbdaXFMzNWrOB3Z-3" target="wNHU4gbdaXFMzNWrOB3Z-39" edge="1">
          <mxGeometry width="50" height="50" relative="1" as="geometry">
            <mxPoint x="380" y="510" as="sourcePoint" />
            <mxPoint x="220.82592140632687" y="337.94536211159743" as="targetPoint" />
          </mxGeometry>
        </mxCell>
        <mxCell id="wNHU4gbdaXFMzNWrOB3Z-13" value="include" style="edgeLabel;html=1;align=center;verticalAlign=middle;resizable=0;points=[];fontSize=10;" parent="wNHU4gbdaXFMzNWrOB3Z-12" vertex="1" connectable="0">
          <mxGeometry x="0.2437" y="-2" relative="1" as="geometry">
            <mxPoint x="-30" y="5" as="offset" />
          </mxGeometry>
        </mxCell>
        <mxCell id="wNHU4gbdaXFMzNWrOB3Z-19" value="" style="endArrow=none;dashed=1;html=1;rounded=0;endFill=1;startFill=1;startArrow=classic;fontSize=10;" parent="1" source="wNHU4gbdaXFMzNWrOB3Z-44" target="wNHU4gbdaXFMzNWrOB3Z-45" edge="1">
          <mxGeometry width="50" height="50" relative="1" as="geometry">
            <mxPoint x="237.20852532221988" y="615.1993214539721" as="sourcePoint" />
            <mxPoint x="212.7914746778074" y="654.8006785459827" as="targetPoint" />
          </mxGeometry>
        </mxCell>
        <mxCell id="wNHU4gbdaXFMzNWrOB3Z-20" value="extend" style="edgeLabel;html=1;align=center;verticalAlign=middle;resizable=0;points=[];fontSize=10;" parent="wNHU4gbdaXFMzNWrOB3Z-19" vertex="1" connectable="0">
          <mxGeometry x="0.2437" y="-2" relative="1" as="geometry">
            <mxPoint x="6" y="-7" as="offset" />
          </mxGeometry>
        </mxCell>
        <mxCell id="wNHU4gbdaXFMzNWrOB3Z-22" value="" style="endArrow=none;html=1;rounded=0;fontSize=10;" parent="1" source="wNHU4gbdaXFMzNWrOB3Z-2" target="wNHU4gbdaXFMzNWrOB3Z-45" edge="1">
          <mxGeometry width="50" height="50" relative="1" as="geometry">
            <mxPoint x="90" y="409" as="sourcePoint" />
            <mxPoint x="8.151828598951852" y="604.4645551127599" as="targetPoint" />
          </mxGeometry>
        </mxCell>
        <mxCell id="wNHU4gbdaXFMzNWrOB3Z-23" value="" style="endArrow=none;html=1;rounded=0;fontSize=10;" parent="1" source="wNHU4gbdaXFMzNWrOB3Z-2" target="wNHU4gbdaXFMzNWrOB3Z-8" edge="1">
          <mxGeometry width="50" height="50" relative="1" as="geometry">
            <mxPoint x="90" y="431" as="sourcePoint" />
            <mxPoint x="164" y="536" as="targetPoint" />
          </mxGeometry>
        </mxCell>
        <mxCell id="wNHU4gbdaXFMzNWrOB3Z-33" value="Система бронирования отелей" style="text;html=1;align=center;verticalAlign=middle;whiteSpace=wrap;rounded=0;" parent="1" vertex="1">
          <mxGeometry x="-40" y="40" width="360" height="30" as="geometry" />
        </mxCell>
        <mxCell id="wNHU4gbdaXFMzNWrOB3Z-39" value="Указать даты заезда и выезда" style="ellipse;whiteSpace=wrap;html=1;fontSize=10;" parent="1" vertex="1">
          <mxGeometry x="170" y="90" width="130" height="100" as="geometry" />
        </mxCell>
        <mxCell id="wNHU4gbdaXFMzNWrOB3Z-44" value="Отменить бронирование" style="ellipse;whiteSpace=wrap;html=1;fontSize=10;" parent="1" vertex="1">
          <mxGeometry x="175" y="350" width="130" height="100" as="geometry" />
        </mxCell>
        <mxCell id="wNHU4gbdaXFMzNWrOB3Z-45" value="Посмотреть оформленные бронирования" style="ellipse;whiteSpace=wrap;html=1;fontSize=10;" parent="1" vertex="1">
          <mxGeometry x="-20" y="350" width="130" height="100" as="geometry" />
        </mxCell>
        <mxCell id="wNHU4gbdaXFMzNWrOB3Z-46" value="Посмотреть текущий стстус в системе лояльности" style="ellipse;whiteSpace=wrap;html=1;fontSize=10;" parent="1" vertex="1">
          <mxGeometry x="-20" y="490" width="130" height="100" as="geometry" />
        </mxCell>
        <mxCell id="wNHU4gbdaXFMzNWrOB3Z-47" value="" style="endArrow=none;html=1;rounded=0;fontSize=10;" parent="1" source="wNHU4gbdaXFMzNWrOB3Z-2" target="wNHU4gbdaXFMzNWrOB3Z-46" edge="1">
          <mxGeometry width="50" height="50" relative="1" as="geometry">
            <mxPoint x="-70" y="411" as="sourcePoint" />
            <mxPoint x="21" y="236" as="targetPoint" />
          </mxGeometry>
        </mxCell>
        <mxCell id="sYymNWtytyhbCN6O2hgs-1" value="Авторизоваться" style="ellipse;whiteSpace=wrap;html=1;fontSize=10;" vertex="1" parent="1">
          <mxGeometry x="-20" y="80" width="130" height="100" as="geometry" />
        </mxCell>
        <mxCell id="sYymNWtytyhbCN6O2hgs-2" value="" style="endArrow=none;html=1;rounded=0;fontSize=10;" edge="1" parent="1" source="wNHU4gbdaXFMzNWrOB3Z-2" target="sYymNWtytyhbCN6O2hgs-1">
          <mxGeometry width="50" height="50" relative="1" as="geometry">
            <mxPoint x="-110" y="428" as="sourcePoint" />
            <mxPoint x="20" y="326" as="targetPoint" />
          </mxGeometry>
        </mxCell>
        <mxCell id="sYymNWtytyhbCN6O2hgs-3" value="Посмотреть&amp;nbsp;&lt;div&gt;список отелей&lt;/div&gt;" style="ellipse;whiteSpace=wrap;html=1;fontSize=10;" vertex="1" parent="1">
          <mxGeometry x="-20" y="220" width="130" height="100" as="geometry" />
        </mxCell>
        <mxCell id="sYymNWtytyhbCN6O2hgs-4" value="" style="endArrow=none;dashed=1;html=1;rounded=0;endFill=1;startFill=1;startArrow=classic;fontSize=10;" edge="1" parent="1" source="wNHU4gbdaXFMzNWrOB3Z-3" target="sYymNWtytyhbCN6O2hgs-3">
          <mxGeometry width="50" height="50" relative="1" as="geometry">
            <mxPoint x="211" y="604" as="sourcePoint" />
            <mxPoint x="139" y="596" as="targetPoint" />
          </mxGeometry>
        </mxCell>
        <mxCell id="sYymNWtytyhbCN6O2hgs-5" value="extend" style="edgeLabel;html=1;align=center;verticalAlign=middle;resizable=0;points=[];fontSize=10;" vertex="1" connectable="0" parent="sYymNWtytyhbCN6O2hgs-4">
          <mxGeometry x="0.2437" y="-2" relative="1" as="geometry">
            <mxPoint x="10" y="-7" as="offset" />
          </mxGeometry>
        </mxCell>
        <mxCell id="sYymNWtytyhbCN6O2hgs-6" value="" style="endArrow=none;html=1;rounded=0;fontSize=10;" edge="1" parent="1" source="wNHU4gbdaXFMzNWrOB3Z-2" target="sYymNWtytyhbCN6O2hgs-3">
          <mxGeometry width="50" height="50" relative="1" as="geometry">
            <mxPoint x="-110" y="415" as="sourcePoint" />
            <mxPoint x="28" y="185" as="targetPoint" />
          </mxGeometry>
        </mxCell>
      </root>
    </mxGraphModel>
  </diagram>
</mxfile>
